<svg width="148" height="148" viewBox="0 0 148 148" fill="none" xmlns="http://www.w3.org/2000/svg">
<path d="M148 74C148 114.869 114.869 148 74 148C33.1309 148 0 114.869 0 74C0 33.1309 33.1309 0 74 0C114.869 0 148 33.1309 148 74Z" fill="#5C51A6"/>
<path d="M91.9395 78L120.544 82.775L114.569 118.563L85.9651 113.788L91.9395 78Z" fill="#5C51A6"/>
<path d="M138 71.5938C138 72.6795 137.569 73.7207 136.801 74.4885C136.033 75.2562 134.992 75.6875 133.906 75.6875H125.719V83.875C125.719 84.9607 125.287 86.002 124.52 86.7697C123.752 87.5375 122.711 87.9688 121.625 87.9688C120.539 87.9688 119.498 87.5375 118.73 86.7697C117.963 86.002 117.531 84.9607 117.531 83.875V75.6875H109.344C108.258 75.6875 107.217 75.2562 106.449 74.4885C105.681 73.7207 105.25 72.6795 105.25 71.5938C105.25 70.508 105.681 69.4668 106.449 68.699C107.217 67.9313 108.258 67.5 109.344 67.5H117.531V59.3125C117.531 58.2268 117.963 57.1855 118.73 56.4178C119.498 55.6501 120.539 55.2188 121.625 55.2188C122.711 55.2188 123.752 55.6501 124.52 56.4178C125.287 57.1855 125.719 58.2268 125.719 59.3125V67.5H133.906C134.992 67.5 136.033 67.9313 136.801 68.699C137.569 69.4668 138 70.508 138 71.5938ZM108.387 101.708C109.086 102.54 109.426 103.616 109.332 104.698C109.237 105.781 108.717 106.782 107.885 107.481C107.053 108.18 105.978 108.519 104.895 108.425C103.813 108.331 102.812 107.811 102.113 106.979C91.8174 94.7183 77.6632 87.9688 62.2656 87.9688C46.868 87.9688 32.7139 94.7183 22.4181 106.979C21.7191 107.81 20.7186 108.33 19.6366 108.423C18.5546 108.517 17.4797 108.177 16.6485 107.478C15.8172 106.779 15.2976 105.779 15.2041 104.697C15.1105 103.615 15.4506 102.54 16.1495 101.708C23.7946 92.61 33.3023 86.147 43.8693 82.6878C37.4519 78.6908 32.5108 72.7124 29.7937 65.6572C27.0765 58.6019 26.7311 50.8536 28.8097 43.5846C30.8883 36.3155 35.2778 29.9212 41.3142 25.3691C47.3505 20.8169 54.7052 18.3545 62.2656 18.3545C69.826 18.3545 77.1807 20.8169 83.2171 25.3691C89.2534 29.9212 93.6429 36.3155 95.7215 43.5846C97.8001 50.8536 97.4547 58.6019 94.7376 65.6572C92.0204 72.7124 87.0793 78.6908 80.6619 82.6878C91.2289 86.147 100.737 92.61 108.387 101.708ZM62.2656 79.7812C67.5285 79.7812 72.6731 78.2206 77.049 75.2968C81.4249 72.3729 84.8355 68.2171 86.8495 63.3548C88.8635 58.4926 89.3904 53.1424 88.3637 47.9806C87.337 42.8189 84.8027 38.0776 81.0813 34.3562C77.3599 30.6348 72.6186 28.1005 67.4568 27.0738C62.2951 26.0471 56.9449 26.574 52.0827 28.588C47.2204 30.602 43.0646 34.0126 40.1407 38.3885C37.2169 42.7644 35.6562 47.909 35.6562 53.1719C35.6644 60.2266 38.4705 66.9901 43.4589 71.9786C48.4474 76.967 55.2109 79.7731 62.2656 79.7812Z" fill="#9C8BD9"/>
</svg>
