<svg width="32" height="32" viewBox="0 0 32 32" fill="none" xmlns="http://www.w3.org/2000/svg">
<path d="M16 3C18.5712 3 21.0846 3.76244 23.2224 5.1909C25.3602 6.61935 27.0265 8.64968 28.0104 11.0251C28.9944 13.4006 29.2518 16.0144 28.7502 18.5362C28.2486 21.0579 27.0105 23.3743 25.1924 25.1924C23.3743 27.0105 21.0579 28.2486 18.5362 28.7502C16.0144 29.2518 13.4005 28.9944 11.0251 28.0104C8.64967 27.0265 6.61935 25.3603 5.19089 23.2224C3.76243 21.0846 2.99999 18.5712 2.99999 16C3.00363 12.5533 4.37444 9.24882 6.81163 6.81163C9.24881 4.37445 12.5533 3.00364 16 3ZM16 27C18.1756 27 20.3023 26.3549 22.1113 25.1462C23.9202 23.9375 25.3301 22.2195 26.1627 20.2095C26.9952 18.1995 27.2131 15.9878 26.7886 13.854C26.3642 11.7202 25.3165 9.7602 23.7782 8.22183C22.2398 6.68345 20.2798 5.6358 18.146 5.21136C16.0122 4.78692 13.8005 5.00476 11.7905 5.83733C9.78049 6.66989 8.06252 8.07979 6.85383 9.88873C5.64513 11.6977 4.99999 13.8244 4.99999 16C5.0033 18.9164 6.16329 21.7123 8.22547 23.7745C10.2877 25.8367 13.0836 26.9967 16 27ZM12.2925 15.2925C12.1995 15.3854 12.1258 15.4957 12.0754 15.6171C12.0251 15.7385 11.9992 15.8686 11.9992 16C11.9992 16.1314 12.0251 16.2615 12.0754 16.3829C12.1258 16.5043 12.1995 16.6146 12.2925 16.7075L17.2925 21.7075C17.3854 21.8004 17.4957 21.8741 17.6171 21.9244C17.7385 21.9747 17.8686 22.0006 18 22.0006C18.1314 22.0006 18.2615 21.9747 18.3829 21.9244C18.5043 21.8741 18.6146 21.8004 18.7075 21.7075C18.8004 21.6146 18.8741 21.5043 18.9244 21.3829C18.9747 21.2615 19.0006 21.1314 19.0006 21C19.0006 20.8686 18.9747 20.7385 18.9244 20.6171C18.8741 20.4957 18.8004 20.3854 18.7075 20.2925L14.4137 16L18.7075 11.7075C18.8951 11.5199 19.0006 11.2654 19.0006 11C19.0006 10.7346 18.8951 10.4801 18.7075 10.2925C18.5199 10.1049 18.2654 9.99944 18 9.99944C17.7346 9.99944 17.4801 10.1049 17.2925 10.2925L12.2925 15.2925Z" fill="#F2622E"/>
</svg>
