<svg width="28" height="28" viewBox="0 0 28 28" fill="none" xmlns="http://www.w3.org/2000/svg">
<circle cx="14" cy="14" r="14" fill="#F2622E"/>
<path d="M18.2969 6.4375C16.5223 6.4375 14.9685 7.20062 14 8.49055C13.0315 7.20062 11.4777 6.4375 9.70312 6.4375C8.29051 6.43909 6.9362 7.00096 5.93733 7.99983C4.93846 8.9987 4.37659 10.353 4.375 11.7656C4.375 17.7812 13.2945 22.6505 13.6743 22.8516C13.7744 22.9054 13.8863 22.9336 14 22.9336C14.1137 22.9336 14.2256 22.9054 14.3257 22.8516C14.7055 22.6505 23.625 17.7812 23.625 11.7656C23.6234 10.353 23.0615 8.9987 22.0627 7.99983C21.0638 7.00096 19.7095 6.43909 18.2969 6.4375ZM14 21.4594C12.4308 20.545 5.75 16.3796 5.75 11.7656C5.75136 10.7176 6.16829 9.71291 6.90935 8.97185C7.65041 8.23079 8.65511 7.81386 9.70312 7.8125C11.3746 7.8125 12.778 8.70281 13.3641 10.1328C13.4159 10.2589 13.504 10.3668 13.6172 10.4427C13.7304 10.5186 13.8637 10.5591 14 10.5591C14.1363 10.5591 14.2696 10.5186 14.3828 10.4427C14.496 10.3668 14.5841 10.2589 14.6359 10.1328C15.222 8.70023 16.6254 7.8125 18.2969 7.8125C19.3449 7.81386 20.3496 8.23079 21.0907 8.97185C21.8317 9.71291 22.2486 10.7176 22.25 11.7656C22.25 16.3727 15.5675 20.5441 14 21.4594Z" fill="#F4F4F4"/>
</svg>
