<svg width="28" height="28" viewBox="0 0 28 28" fill="none" xmlns="http://www.w3.org/2000/svg">
<circle cx="14" cy="14" r="14" fill="#F2622E"/>
<path d="M18.2969 6.4375C16.5223 6.4375 14.9685 7.20062 14 8.49055C13.0315 7.20062 11.4777 6.4375 9.70312 6.4375C8.29051 6.43909 6.9362 7.00096 5.93733 7.99983C4.93846 8.9987 4.37659 10.353 4.375 11.7656C4.375 17.7812 13.2945 22.6505 13.6743 22.8516C13.7744 22.9054 13.8863 22.9336 14 22.9336C14.1137 22.9336 14.2256 22.9054 14.3257 22.8516C14.7055 22.6505 23.625 17.7812 23.625 11.7656C23.6234 10.353 23.0615 8.9987 22.0627 7.99983C21.0638 7.00096 19.7095 6.43909 18.2969 6.4375ZM14 21.4594C12.4308 20.545 5.75 16.3796 5.75 11.7656C5.75136 10.7176 6.16829 9.71291 6.90935 8.97185C7.65041 8.23079 8.65511 7.81386 9.70312 7.8125C11.3746 7.8125 12.778 8.70281 13.3641 10.1328C13.4159 10.2589 13.504 10.3668 13.6172 10.4427C13.7304 10.5186 13.8637 10.5591 14 10.5591C14.1363 10.5591 14.2696 10.5186 14.3828 10.4427C14.496 10.3668 14.5841 10.2589 14.6359 10.1328C15.222 8.70023 16.6254 7.8125 18.2969 7.8125C19.3449 7.81386 20.3496 8.23079 21.0907 8.97185C21.8317 9.71291 22.2486 10.7176 22.25 11.7656C22.25 16.3727 15.5675 20.5441 14 21.4594Z" fill="#F4F4F4"/>
<path d="M13.9999 23L22.6602 9.5H5.33969L13.9999 23Z" fill="#F4F4F4"/>
<path d="M13.9999 9.5C13.9999 10.8807 12.2091 12 9.99995 12C7.79081 12 5.99995 10.8807 5.99995 9.5C5.99995 8.11929 7.79081 7 9.99995 7C12.2091 7 13.9999 8.11929 13.9999 9.5Z" fill="#F4F4F4"/>
<path d="M21.9999 9.5C21.9999 10.8807 20.2091 12 17.9999 12C15.7908 12 13.9999 10.8807 13.9999 9.5C13.9999 8.11929 15.7908 7 17.9999 7C20.2091 7 21.9999 8.11929 21.9999 9.5Z" fill="#F4F4F4"/>
<path d="M10.9018 14.7173C13.0567 17.8748 14.0865 20.924 13.2018 21.5277C12.3171 22.1315 9.85306 20.0612 7.69815 16.9037C5.54324 13.7461 4.5135 10.697 5.39817 10.0932C6.28285 9.48945 8.74692 11.5597 10.9018 14.7173Z" fill="#F4F4F4"/>
<path d="M16.9018 14.7173C14.7469 17.8748 13.7171 20.924 14.6018 21.5277C15.4865 22.1315 17.9505 20.0612 20.1055 16.9037C22.2604 13.7461 23.2901 10.697 22.4054 10.0932C21.5208 9.48945 19.0567 11.5597 16.9018 14.7173Z" fill="#F4F4F4"/>
</svg>
