<svg width="135" height="202" viewBox="0 0 135 202" fill="none" xmlns="http://www.w3.org/2000/svg">
<g clip-path="url(#clip0_267_2151)">
<rect width="135" height="202" rx="5" fill="url(#paint0_linear_267_2151)"/>
<path d="M88.3123 65.1875H60.7247L86.8592 58.2876C87.1065 58.2224 87.3386 58.1089 87.5418 57.9536C87.7451 57.7983 87.9156 57.6042 88.0435 57.3827C88.1714 57.1611 88.2541 56.9164 88.287 56.6627C88.3198 56.409 88.3021 56.1513 88.2348 55.9045L86.2585 48.6389C85.9865 47.6614 85.3404 46.8304 84.4601 46.3258C83.5798 45.8213 82.5362 45.6839 81.5553 45.9433L44.6725 55.6793C44.1814 55.8067 43.7207 56.0309 43.3173 56.3386C42.9139 56.6464 42.576 57.0315 42.3233 57.4714C42.0692 57.906 41.905 58.3872 41.8405 58.8865C41.776 59.3857 41.8126 59.8928 41.9479 60.3777L43.7498 67.0185C43.7498 67.0524 43.7498 67.0887 43.7498 67.125V88.4375C43.7498 89.4652 44.158 90.4509 44.8848 91.1776C45.6115 91.9043 46.5971 92.3125 47.6248 92.3125H86.3748C87.4025 92.3125 88.3881 91.9043 89.1148 91.1776C89.8415 90.4509 90.2498 89.4652 90.2498 88.4375V67.125C90.2498 66.6112 90.0457 66.1184 89.6823 65.755C89.319 65.3917 88.8261 65.1875 88.3123 65.1875ZM82.5385 49.6875L83.9917 55.0326L78.5134 56.4857L71.7031 52.5526L82.5385 49.6875ZM66.3871 53.95L73.1974 57.8832L64.251 60.2445L57.4406 56.3162L66.3871 53.95ZM47.1574 64.7564L45.7042 59.4089L52.1222 57.7136L58.9325 61.6516L47.1574 64.7564ZM86.3748 88.4375H47.6248V69.0625H86.3748V88.4375Z" fill="#9C8BD9"/>
<path d="M8.53952 112.69V110.24H15.5255C15.8055 110.24 16.0389 110.198 16.2255 110.114C16.4215 110.021 16.5195 109.829 16.5195 109.54C16.5195 109.241 16.4215 109.05 16.2255 108.966C16.0389 108.882 15.8055 108.84 15.5255 108.84H8.76352V115H5.26352V106.04H14.9795C15.6795 106.04 16.3329 106.091 16.9395 106.194C17.5555 106.287 18.0922 106.46 18.5495 106.712C19.0069 106.964 19.3662 107.319 19.6275 107.776C19.8889 108.233 20.0195 108.821 20.0195 109.54C20.0195 110.259 19.8889 110.828 19.6275 111.248C19.3662 111.668 19.0069 111.981 18.5495 112.186C18.0922 112.391 17.5555 112.527 16.9395 112.592C16.3329 112.657 15.6795 112.69 14.9795 112.69H8.53952ZM27.7894 115.21C26.3054 115.21 25.0687 115.089 24.0794 114.846C23.0994 114.603 22.3621 114.216 21.8674 113.684C21.3821 113.152 21.1394 112.452 21.1394 111.584C21.1394 110.716 21.3821 110.016 21.8674 109.484C22.3621 108.943 23.0994 108.551 24.0794 108.308C25.0687 108.056 26.3054 107.93 27.7894 107.93C29.2641 107.93 30.4867 108.056 31.4574 108.308C32.4374 108.551 33.1701 108.943 33.6554 109.484C34.1407 110.016 34.3834 110.716 34.3834 111.584C34.3834 112.452 34.1407 113.152 33.6554 113.684C33.1701 114.216 32.4374 114.603 31.4574 114.846C30.4867 115.089 29.2641 115.21 27.7894 115.21ZM27.7894 113.18C28.4801 113.18 29.0587 113.124 29.5254 113.012C29.9921 112.891 30.3467 112.713 30.5894 112.48C30.8321 112.237 30.9534 111.939 30.9534 111.584C30.9534 111.229 30.8321 110.931 30.5894 110.688C30.3561 110.445 30.0061 110.263 29.5394 110.142C29.0727 110.021 28.4894 109.96 27.7894 109.96C27.0987 109.96 26.5107 110.021 26.0254 110.142C25.5494 110.263 25.1854 110.445 24.9334 110.688C24.6907 110.921 24.5694 111.22 24.5694 111.584C24.5694 111.939 24.6907 112.237 24.9334 112.48C25.1761 112.713 25.5354 112.891 26.0114 113.012C26.4967 113.124 27.0894 113.18 27.7894 113.18ZM35.4982 108.14H38.8582V115H35.4982V108.14ZM42.4702 110.73C41.8635 110.73 41.3082 110.786 40.8042 110.898C40.3002 111.01 39.8708 111.145 39.5162 111.304C39.1615 111.453 38.8955 111.603 38.7182 111.752L38.6902 111.08C38.7182 110.884 38.7928 110.655 38.9142 110.394C39.0355 110.123 39.1988 109.848 39.4042 109.568C39.6095 109.279 39.8615 109.013 40.1602 108.77C40.4588 108.518 40.7995 108.317 41.1822 108.168C41.5742 108.009 42.0035 107.93 42.4702 107.93V110.73ZM43.1736 108.14H51.4056V110.24H43.1736V108.14ZM45.6096 106.04H48.9696V115H45.6096V106.04ZM57.3966 115.196C56.3886 115.196 55.4926 115.056 54.7086 114.776C53.9246 114.487 53.3039 114.071 52.8466 113.53C52.3986 112.989 52.1746 112.335 52.1746 111.57C52.1746 110.767 52.3986 110.095 52.8466 109.554C53.3039 109.013 53.9246 108.607 54.7086 108.336C55.4926 108.065 56.3886 107.93 57.3966 107.93C58.5166 107.93 59.4826 108.084 60.2946 108.392C61.1159 108.691 61.7459 109.115 62.1846 109.666C62.6326 110.207 62.8566 110.842 62.8566 111.57C62.8566 112.111 62.7306 112.606 62.4786 113.054C62.2266 113.493 61.8626 113.875 61.3866 114.202C60.9106 114.519 60.3366 114.767 59.6646 114.944C58.9926 115.112 58.2366 115.196 57.3966 115.196ZM58.6566 113.068C59.3659 113.068 60.0146 113.026 60.6026 112.942C61.1999 112.849 61.6759 112.695 62.0306 112.48C62.3946 112.265 62.5766 111.962 62.5766 111.57C62.5766 111.169 62.3946 110.861 62.0306 110.646C61.6759 110.431 61.1999 110.282 60.6026 110.198C60.0146 110.114 59.3659 110.072 58.6566 110.072C57.7046 110.072 56.9672 110.198 56.4446 110.45C55.9219 110.693 55.6606 111.066 55.6606 111.57C55.6606 111.897 55.7772 112.172 56.0106 112.396C56.2439 112.62 56.5846 112.788 57.0326 112.9C57.4806 113.012 58.0219 113.068 58.6566 113.068ZM62.5766 108.14H65.9366V115H62.7726C62.7726 115 62.7539 114.893 62.7166 114.678C62.6886 114.463 62.6559 114.155 62.6186 113.754C62.5906 113.353 62.5766 112.881 62.5766 112.34V108.14ZM72.2852 115.196C71.2772 115.196 70.3812 115.056 69.5972 114.776C68.8132 114.487 68.1926 114.071 67.7352 113.53C67.2872 112.989 67.0632 112.335 67.0632 111.57C67.0632 110.767 67.2872 110.095 67.7352 109.554C68.1926 109.013 68.8132 108.607 69.5972 108.336C70.3812 108.065 71.2772 107.93 72.2852 107.93C73.1252 107.93 73.8812 108.019 74.5532 108.196C75.2252 108.364 75.7992 108.611 76.2752 108.938C76.7512 109.255 77.1152 109.638 77.3672 110.086C77.6192 110.534 77.7452 111.029 77.7452 111.57C77.7452 112.111 77.6192 112.606 77.3672 113.054C77.1152 113.493 76.7512 113.875 76.2752 114.202C75.7992 114.519 75.2252 114.767 74.5532 114.944C73.8812 115.112 73.1252 115.196 72.2852 115.196ZM73.5452 113.068C74.2546 113.068 74.9032 113.026 75.4912 112.942C76.0886 112.849 76.5646 112.695 76.9192 112.48C77.2832 112.265 77.4652 111.962 77.4652 111.57C77.4652 111.169 77.2832 110.861 76.9192 110.646C76.5646 110.431 76.0886 110.282 75.4912 110.198C74.9032 110.114 74.2546 110.072 73.5452 110.072C72.5932 110.072 71.8559 110.198 71.3332 110.45C70.8106 110.693 70.5492 111.066 70.5492 111.57C70.5492 111.897 70.6659 112.172 70.8992 112.396C71.1326 112.62 71.4732 112.788 71.9212 112.9C72.3692 113.012 72.9106 113.068 73.5452 113.068ZM77.4652 105.34H80.8252V115H77.6612C77.6239 114.785 77.5819 114.44 77.5352 113.964C77.4886 113.479 77.4652 112.937 77.4652 112.34V105.34ZM87.6524 115.196C86.6444 115.196 85.7484 115.056 84.9644 114.776C84.1804 114.487 83.5598 114.071 83.1024 113.53C82.6544 112.989 82.4304 112.335 82.4304 111.57C82.4304 110.767 82.6544 110.095 83.1024 109.554C83.5598 109.013 84.1804 108.607 84.9644 108.336C85.7484 108.065 86.6444 107.93 87.6524 107.93C88.7724 107.93 89.7384 108.084 90.5504 108.392C91.3718 108.691 92.0018 109.115 92.4404 109.666C92.8884 110.207 93.1124 110.842 93.1124 111.57C93.1124 112.111 92.9864 112.606 92.7344 113.054C92.4824 113.493 92.1184 113.875 91.6424 114.202C91.1664 114.519 90.5924 114.767 89.9204 114.944C89.2484 115.112 88.4924 115.196 87.6524 115.196ZM88.9124 113.068C89.6218 113.068 90.2704 113.026 90.8584 112.942C91.4558 112.849 91.9318 112.695 92.2864 112.48C92.6504 112.265 92.8324 111.962 92.8324 111.57C92.8324 111.169 92.6504 110.861 92.2864 110.646C91.9318 110.431 91.4558 110.282 90.8584 110.198C90.2704 110.114 89.6218 110.072 88.9124 110.072C87.9604 110.072 87.2231 110.198 86.7004 110.45C86.1778 110.693 85.9164 111.066 85.9164 111.57C85.9164 111.897 86.0331 112.172 86.2664 112.396C86.4998 112.62 86.8404 112.788 87.2884 112.9C87.7364 113.012 88.2778 113.068 88.9124 113.068ZM92.8324 108.14H96.1924V115H93.0284C93.0284 115 93.0098 114.893 92.9724 114.678C92.9444 114.463 92.9118 114.155 92.8744 113.754C92.8464 113.353 92.8324 112.881 92.8324 112.34V108.14ZM101.793 108.14H105.153V115H101.793V108.14ZM110.193 107.93C110.744 107.93 111.276 107.991 111.789 108.112C112.302 108.224 112.76 108.42 113.161 108.7C113.572 108.98 113.898 109.363 114.141 109.848C114.384 110.333 114.505 110.945 114.505 111.682V115H111.145V112.102C111.145 111.402 110.963 110.907 110.599 110.618C110.235 110.319 109.577 110.17 108.625 110.17C108.121 110.17 107.631 110.226 107.155 110.338C106.688 110.45 106.268 110.585 105.895 110.744C105.522 110.893 105.228 111.043 105.013 111.192L104.985 110.66C105.022 110.492 105.148 110.259 105.363 109.96C105.587 109.652 105.909 109.344 106.329 109.036C106.749 108.728 107.276 108.467 107.911 108.252C108.555 108.037 109.316 107.93 110.193 107.93ZM122.276 115.21C120.792 115.21 119.555 115.089 118.566 114.846C117.586 114.603 116.848 114.216 116.354 113.684C115.868 113.152 115.626 112.452 115.626 111.584C115.626 110.716 115.868 110.016 116.354 109.484C116.848 108.943 117.586 108.551 118.566 108.308C119.555 108.056 120.792 107.93 122.276 107.93C123.75 107.93 124.973 108.056 125.944 108.308C126.924 108.551 127.656 108.943 128.142 109.484C128.627 110.016 128.87 110.716 128.87 111.584C128.87 112.452 128.627 113.152 128.142 113.684C127.656 114.216 126.924 114.603 125.944 114.846C124.973 115.089 123.75 115.21 122.276 115.21ZM122.276 113.18C122.966 113.18 123.545 113.124 124.012 113.012C124.478 112.891 124.833 112.713 125.076 112.48C125.318 112.237 125.44 111.939 125.44 111.584C125.44 111.229 125.318 110.931 125.076 110.688C124.842 110.445 124.492 110.263 124.026 110.142C123.559 110.021 122.976 109.96 122.276 109.96C121.585 109.96 120.997 110.021 120.512 110.142C120.036 110.263 119.672 110.445 119.42 110.688C119.177 110.921 119.056 111.22 119.056 111.584C119.056 111.939 119.177 112.237 119.42 112.48C119.662 112.713 120.022 112.891 120.498 113.012C120.983 113.124 121.576 113.18 122.276 113.18ZM17.3311 132.196C16.3231 132.196 15.4271 132.056 14.6431 131.776C13.8591 131.487 13.2385 131.071 12.7811 130.53C12.3331 129.989 12.1091 129.335 12.1091 128.57C12.1091 127.767 12.3331 127.095 12.7811 126.554C13.2385 126.013 13.8591 125.607 14.6431 125.336C15.4271 125.065 16.3231 124.93 17.3311 124.93C18.1711 124.93 18.9271 125.019 19.5991 125.196C20.2711 125.364 20.8451 125.611 21.3211 125.938C21.7971 126.255 22.1611 126.638 22.4131 127.086C22.6651 127.534 22.7911 128.029 22.7911 128.57C22.7911 129.111 22.6651 129.606 22.4131 130.054C22.1611 130.493 21.7971 130.875 21.3211 131.202C20.8451 131.519 20.2711 131.767 19.5991 131.944C18.9271 132.112 18.1711 132.196 17.3311 132.196ZM18.5911 130.068C19.3005 130.068 19.9491 130.026 20.5371 129.942C21.1345 129.849 21.6105 129.695 21.9651 129.48C22.3291 129.265 22.5111 128.962 22.5111 128.57C22.5111 128.169 22.3291 127.861 21.9651 127.646C21.6105 127.431 21.1345 127.282 20.5371 127.198C19.9491 127.114 19.3005 127.072 18.5911 127.072C17.6391 127.072 16.9018 127.198 16.3791 127.45C15.8565 127.693 15.5951 128.066 15.5951 128.57C15.5951 128.897 15.7118 129.172 15.9451 129.396C16.1785 129.62 16.5191 129.788 16.9671 129.9C17.4151 130.012 17.9565 130.068 18.5911 130.068ZM22.5111 122.34H25.8711V132H22.7071C22.6698 131.785 22.6278 131.44 22.5811 130.964C22.5345 130.479 22.5111 129.937 22.5111 129.34V122.34ZM31.3123 121.542V123.642H27.7563V121.542H31.3123ZM27.8543 125.14H31.2143V132H27.8543V125.14ZM32.6459 129.536H35.7399C35.8706 129.779 36.1179 129.947 36.4819 130.04C36.8553 130.133 37.3873 130.18 38.0779 130.18C38.6099 130.18 39.0019 130.152 39.2539 130.096C39.5153 130.04 39.6833 129.965 39.7579 129.872C39.8419 129.779 39.8839 129.681 39.8839 129.578C39.8839 129.419 39.7953 129.312 39.6179 129.256C39.4499 129.191 39.1606 129.153 38.7499 129.144C38.3393 129.125 37.7746 129.116 37.0559 129.116C36.3746 129.116 35.7633 129.088 35.2219 129.032C34.6899 128.967 34.2373 128.869 33.8639 128.738C33.4906 128.598 33.2059 128.407 33.0099 128.164C32.8139 127.921 32.7159 127.618 32.7159 127.254C32.7159 126.806 32.8606 126.433 33.1499 126.134C33.4393 125.826 33.8313 125.588 34.3259 125.42C34.8206 125.243 35.3899 125.117 36.0339 125.042C36.6873 124.967 37.3686 124.93 38.0779 124.93C39.2539 124.93 40.2153 125.051 40.9619 125.294C41.7086 125.527 42.2593 125.845 42.6139 126.246C42.9686 126.647 43.1413 127.1 43.1319 127.604H40.1219C40.0193 127.361 39.8233 127.193 39.5339 127.1C39.2539 127.007 38.7686 126.96 38.0779 126.96C37.4246 126.96 36.9486 127.011 36.6499 127.114C36.3606 127.207 36.2159 127.361 36.2159 127.576C36.2159 127.716 36.2859 127.823 36.4259 127.898C36.5753 127.963 36.8506 128.01 37.2519 128.038C37.6626 128.066 38.2599 128.08 39.0439 128.08C39.5853 128.08 40.1126 128.099 40.6259 128.136C41.1486 128.173 41.6153 128.253 42.0259 128.374C42.4459 128.495 42.7773 128.682 43.0199 128.934C43.2626 129.186 43.3839 129.531 43.3839 129.97C43.3839 130.502 43.1646 130.936 42.7259 131.272C42.2966 131.599 41.6853 131.837 40.8919 131.986C40.0986 132.135 39.1606 132.21 38.0779 132.21C37.1353 132.21 36.3373 132.149 35.6839 132.028C35.0399 131.907 34.5126 131.748 34.1019 131.552C33.6913 131.347 33.3739 131.127 33.1499 130.894C32.9353 130.651 32.7906 130.413 32.7159 130.18C32.6506 129.937 32.6273 129.723 32.6459 129.536ZM53.0411 132.21C52.2011 132.21 51.4451 132.126 50.7731 131.958C50.1011 131.781 49.5271 131.533 49.0511 131.216C48.5751 130.889 48.2111 130.502 47.9591 130.054C47.7071 129.606 47.5811 129.111 47.5811 128.57C47.5811 128.029 47.7071 127.539 47.9591 127.1C48.2111 126.652 48.5751 126.269 49.0511 125.952C49.5271 125.625 50.1011 125.378 50.7731 125.21C51.4451 125.033 52.2011 124.944 53.0411 124.944C54.0491 124.944 54.9451 125.089 55.7291 125.378C56.5224 125.658 57.1431 126.069 57.5911 126.61C58.0391 127.151 58.2631 127.805 58.2631 128.57C58.2631 129.373 58.0391 130.045 57.5911 130.586C57.1431 131.127 56.5224 131.533 55.7291 131.804C54.9451 132.075 54.0491 132.21 53.0411 132.21ZM51.7811 130.068C52.4158 130.068 52.9571 130.012 53.4051 129.9C53.8531 129.788 54.1938 129.625 54.4271 129.41C54.6604 129.186 54.7771 128.906 54.7771 128.57C54.7771 128.075 54.5158 127.702 53.9931 127.45C53.4704 127.198 52.7331 127.072 51.7811 127.072C51.0718 127.072 50.4184 127.114 49.8211 127.198C49.2331 127.282 48.7571 127.436 48.3931 127.66C48.0384 127.875 47.8611 128.178 47.8611 128.57C47.8611 128.962 48.0384 129.27 48.3931 129.494C48.7571 129.709 49.2331 129.858 49.8211 129.942C50.4184 130.026 51.0718 130.068 51.7811 130.068ZM44.5011 125.14H47.6651L47.8611 127.8V134.8H44.5011V125.14ZM65.8998 132.21C64.4158 132.21 63.1791 132.089 62.1898 131.846C61.2098 131.603 60.4724 131.216 59.9778 130.684C59.4924 130.152 59.2498 129.452 59.2498 128.584C59.2498 127.716 59.4924 127.016 59.9778 126.484C60.4724 125.943 61.2098 125.551 62.1898 125.308C63.1791 125.056 64.4158 124.93 65.8998 124.93C67.3744 124.93 68.5971 125.056 69.5678 125.308C70.5478 125.551 71.2804 125.943 71.7658 126.484C72.2511 127.016 72.4938 127.716 72.4938 128.584C72.4938 129.452 72.2511 130.152 71.7658 130.684C71.2804 131.216 70.5478 131.603 69.5678 131.846C68.5971 132.089 67.3744 132.21 65.8998 132.21ZM65.8998 130.18C66.5904 130.18 67.1691 130.124 67.6358 130.012C68.1024 129.891 68.4571 129.713 68.6998 129.48C68.9424 129.237 69.0638 128.939 69.0638 128.584C69.0638 128.229 68.9424 127.931 68.6998 127.688C68.4664 127.445 68.1164 127.263 67.6498 127.142C67.1831 127.021 66.5998 126.96 65.8998 126.96C65.2091 126.96 64.6211 127.021 64.1358 127.142C63.6598 127.263 63.2958 127.445 63.0438 127.688C62.8011 127.921 62.6798 128.22 62.6798 128.584C62.6798 128.939 62.8011 129.237 63.0438 129.48C63.2864 129.713 63.6458 129.891 64.1218 130.012C64.6071 130.124 65.1998 130.18 65.8998 130.18ZM73.6085 125.14H76.9685V132H73.6085V125.14ZM82.0085 124.93C82.5592 124.93 83.0912 124.991 83.6045 125.112C84.1178 125.224 84.5752 125.42 84.9765 125.7C85.3872 125.98 85.7138 126.363 85.9565 126.848C86.1992 127.333 86.3205 127.945 86.3205 128.682V132H82.9605V129.102C82.9605 128.402 82.7785 127.907 82.4145 127.618C82.0505 127.319 81.3925 127.17 80.4405 127.17C79.9365 127.17 79.4465 127.226 78.9705 127.338C78.5038 127.45 78.0838 127.585 77.7105 127.744C77.3372 127.893 77.0432 128.043 76.8285 128.192L76.8005 127.66C76.8378 127.492 76.9638 127.259 77.1785 126.96C77.4025 126.652 77.7245 126.344 78.1445 126.036C78.5645 125.728 79.0918 125.467 79.7265 125.252C80.3705 125.037 81.1312 124.93 82.0085 124.93ZM91.2772 121.542V123.642H87.7212V121.542H91.2772ZM87.8192 125.14H91.1792V132H87.8192V125.14ZM101.711 132.196C100.871 132.196 100.115 132.112 99.4428 131.944C98.7708 131.767 98.1968 131.519 97.7208 131.202C97.2448 130.875 96.8808 130.493 96.6288 130.054C96.3768 129.606 96.2508 129.111 96.2508 128.57C96.2508 128.029 96.3768 127.534 96.6288 127.086C96.8808 126.638 97.2448 126.255 97.7208 125.938C98.1968 125.611 98.7708 125.364 99.4428 125.196C100.115 125.019 100.871 124.93 101.711 124.93C102.719 124.93 103.615 125.065 104.399 125.336C105.192 125.607 105.813 126.013 106.261 126.554C106.709 127.095 106.933 127.767 106.933 128.57C106.933 129.335 106.709 129.989 106.261 130.53C105.813 131.071 105.192 131.487 104.399 131.776C103.615 132.056 102.719 132.196 101.711 132.196ZM100.451 130.068C101.085 130.068 101.627 130.012 102.075 129.9C102.523 129.788 102.863 129.62 103.097 129.396C103.33 129.172 103.447 128.897 103.447 128.57C103.447 128.066 103.185 127.693 102.663 127.45C102.14 127.198 101.403 127.072 100.451 127.072C99.7414 127.072 99.0881 127.114 98.4908 127.198C97.9028 127.282 97.4268 127.431 97.0628 127.646C96.7081 127.861 96.5308 128.169 96.5308 128.57C96.5308 128.962 96.7081 129.265 97.0628 129.48C97.4268 129.695 97.9028 129.849 98.4908 129.942C99.0881 130.026 99.7414 130.068 100.451 130.068ZM96.5308 122.34V129.34C96.5308 129.937 96.5074 130.479 96.4608 130.964C96.4234 131.44 96.3814 131.785 96.3348 132H93.1708V122.34H96.5308ZM108.258 122.34H111.618V132H108.258V122.34ZM122.557 129.536H125.861C125.777 130.077 125.506 130.549 125.049 130.95C124.601 131.351 123.943 131.664 123.075 131.888C122.216 132.103 121.12 132.21 119.785 132.21C118.376 132.21 117.158 132.098 116.131 131.874C115.114 131.65 114.33 131.272 113.779 130.74C113.228 130.208 112.953 129.489 112.953 128.584C112.953 127.688 113.219 126.974 113.751 126.442C114.292 125.901 115.072 125.513 116.089 125.28C117.106 125.047 118.338 124.93 119.785 124.93C121.204 124.93 122.366 125.056 123.271 125.308C124.176 125.56 124.844 125.971 125.273 126.54C125.702 127.1 125.908 127.861 125.889 128.822H116.369C116.416 129.065 116.546 129.289 116.761 129.494C116.985 129.699 117.326 129.867 117.783 129.998C118.25 130.119 118.87 130.18 119.645 130.18C120.448 130.18 121.106 130.124 121.619 130.012C122.142 129.9 122.454 129.741 122.557 129.536ZM119.645 126.96C118.656 126.96 117.9 127.067 117.377 127.282C116.864 127.497 116.56 127.711 116.467 127.926H122.627C122.562 127.683 122.3 127.464 121.843 127.268C121.386 127.063 120.653 126.96 119.645 126.96Z" fill="#F4F4F4"/>
</g>
<defs>
<linearGradient id="paint0_linear_267_2151" x1="67.5" y1="0" x2="67.5" y2="202" gradientUnits="userSpaceOnUse">
<stop offset="0.1" stop-color="#5C51A6"/>
<stop offset="0.55" stop-color="#392D66"/>
<stop offset="0.945" stop-color="#160826"/>
</linearGradient>
<clipPath id="clip0_267_2151">
<path d="M0 5C0 2.23858 2.23858 0 5 0H130C132.761 0 135 2.23858 135 5V197C135 199.761 132.761 202 130 202H5C2.23857 202 0 199.761 0 197V5Z" fill="white"/>
</clipPath>
</defs>
</svg>
