<svg width="128" height="33" viewBox="0 0 128 33" fill="none" xmlns="http://www.w3.org/2000/svg">
<path d="M12.096 28.936H9.996L17.64 21.04H21.14V30H17.64V23.896L18.69 24.33L13.16 30H8.96L3.416 24.344L4.48 23.91V30H0.98V21.04H4.48L12.096 28.936ZM28.8411 30.21C27.3571 30.21 26.1204 30.0887 25.1311 29.846C24.1511 29.6033 23.4138 29.216 22.9191 28.684C22.4338 28.152 22.1911 27.452 22.1911 26.584C22.1911 25.716 22.4338 25.016 22.9191 24.484C23.4138 23.9427 24.1511 23.5507 25.1311 23.308C26.1204 23.056 27.3571 22.93 28.8411 22.93C30.3158 22.93 31.5384 23.056 32.5091 23.308C33.4891 23.5507 34.2218 23.9427 34.7071 24.484C35.1924 25.016 35.4351 25.716 35.4351 26.584C35.4351 27.452 35.1924 28.152 34.7071 28.684C34.2218 29.216 33.4891 29.6033 32.5091 29.846C31.5384 30.0887 30.3158 30.21 28.8411 30.21ZM28.8411 28.18C29.5318 28.18 30.1104 28.124 30.5771 28.012C31.0438 27.8907 31.3984 27.7133 31.6411 27.48C31.8838 27.2373 32.0051 26.9387 32.0051 26.584C32.0051 26.2293 31.8838 25.9307 31.6411 25.688C31.4078 25.4453 31.0578 25.2633 30.5911 25.142C30.1244 25.0207 29.5411 24.96 28.8411 24.96C28.1504 24.96 27.5624 25.0207 27.0771 25.142C26.6011 25.2633 26.2371 25.4453 25.9851 25.688C25.7424 25.9213 25.6211 26.22 25.6211 26.584C25.6211 26.9387 25.7424 27.2373 25.9851 27.48C26.2278 27.7133 26.5871 27.8907 27.0631 28.012C27.5484 28.124 28.1411 28.18 28.8411 28.18ZM42.2297 28.74L40.6337 28.712L44.1617 23.14H47.8717L42.9857 30H39.8217L35.1597 23.14H38.8557L42.2297 28.74ZM52.2673 19.542V21.642H48.7112V19.542H52.2673ZM48.8092 23.14H52.1693V30H48.8092V23.14ZM63.1349 27.536H66.4389C66.3549 28.0773 66.0842 28.5487 65.6269 28.95C65.1789 29.3513 64.5209 29.664 63.6529 29.888C62.7942 30.1027 61.6975 30.21 60.3629 30.21C58.9535 30.21 57.7355 30.098 56.7089 29.874C55.6915 29.65 54.9075 29.272 54.3569 28.74C53.8062 28.208 53.5309 27.4893 53.5309 26.584C53.5309 25.688 53.7969 24.974 54.3289 24.442C54.8702 23.9007 55.6495 23.5133 56.6669 23.28C57.6842 23.0467 58.9162 22.93 60.3629 22.93C61.7815 22.93 62.9435 23.056 63.8489 23.308C64.7542 23.56 65.4215 23.9707 65.8509 24.54C66.2802 25.1 66.4855 25.8607 66.4669 26.822H56.9469C56.9935 27.0647 57.1242 27.2887 57.3389 27.494C57.5629 27.6993 57.9035 27.8673 58.3609 27.998C58.8275 28.1193 59.4482 28.18 60.2229 28.18C61.0255 28.18 61.6835 28.124 62.1969 28.012C62.7195 27.9 63.0322 27.7413 63.1349 27.536ZM60.2229 24.96C59.2335 24.96 58.4775 25.0673 57.9549 25.282C57.4415 25.4967 57.1382 25.7113 57.0449 25.926H63.2049C63.1395 25.6833 62.8782 25.464 62.4209 25.268C61.9635 25.0627 61.2309 24.96 60.2229 24.96ZM81.9808 27.256L80.6788 27.998V21.04H84.1788V30H80.6788L70.1368 23.896L71.4388 23.14V30H67.9388V21.04H71.4388L81.9808 27.256ZM89.4821 19.542V21.642H85.9261V19.542H89.4821ZM86.0241 23.14H89.3841V30H86.0241V23.14ZM96.5417 29.034C95.2164 29.034 94.1244 28.9267 93.2657 28.712C92.407 28.488 91.7724 28.1567 91.3617 27.718C90.951 27.27 90.7457 26.71 90.7457 26.038C90.7457 25.4127 90.9464 24.8713 91.3477 24.414C91.749 23.9473 92.3744 23.5833 93.2237 23.322C94.0824 23.0607 95.1884 22.93 96.5417 22.93C96.8124 22.93 97.0877 22.93 97.3677 22.93C97.6477 22.93 97.923 22.93 98.1937 22.93H103.542V24.694C102.935 24.722 102.319 24.694 101.694 24.61C101.078 24.5167 100.508 24.3953 99.9857 24.246L99.8317 24.036C100.252 24.1667 100.648 24.3347 101.022 24.54C101.404 24.7453 101.712 24.9927 101.946 25.282C102.179 25.5713 102.296 25.9167 102.296 26.318C102.296 26.8967 102.095 27.3913 101.694 27.802C101.302 28.2033 100.681 28.5113 99.8317 28.726C98.9917 28.9313 97.895 29.034 96.5417 29.034ZM99.5237 33.01V32.632C99.5237 32.352 99.3977 32.184 99.1457 32.128C98.903 32.0813 98.5157 32.058 97.9837 32.058H94.0777C93.415 32.058 92.8784 32.0113 92.4677 31.918C92.0664 31.8247 91.7584 31.6987 91.5437 31.54C91.3384 31.3813 91.1984 31.204 91.1237 31.008C91.0584 30.8213 91.0257 30.6347 91.0257 30.448C91.0257 30.0467 91.175 29.734 91.4737 29.51C91.7724 29.2767 92.2297 29.1133 92.8457 29.02C93.4617 28.9267 94.2457 28.88 95.1977 28.88L96.5417 29.034C95.7577 29.034 95.2117 29.076 94.9037 29.16C94.5957 29.2347 94.4417 29.3887 94.4417 29.622C94.4417 29.7527 94.5024 29.8507 94.6237 29.916C94.745 29.972 94.9084 30 95.1137 30H99.2437C100.168 30 100.896 30.0653 101.428 30.196C101.96 30.336 102.333 30.5647 102.548 30.882C102.772 31.2087 102.884 31.652 102.884 32.212V33.01H99.5237ZM96.5417 27.2C97.1577 27.2 97.6524 27.1533 98.0257 27.06C98.4084 26.9573 98.6837 26.822 98.8517 26.654C99.0197 26.486 99.1037 26.2993 99.1037 26.094C99.1037 25.8607 99.0197 25.66 98.8517 25.492C98.6837 25.324 98.413 25.1933 98.0397 25.1C97.6664 25.0067 97.167 24.96 96.5417 24.96C95.9257 24.96 95.4264 25.0067 95.0437 25.1C94.661 25.1933 94.381 25.324 94.2037 25.492C94.0264 25.66 93.9377 25.8607 93.9377 26.094C93.9377 26.2993 94.0217 26.486 94.1897 26.654C94.367 26.822 94.647 26.9573 95.0297 27.06C95.4124 27.1533 95.9164 27.2 96.5417 27.2ZM113.94 30V27.452C113.94 27.032 113.856 26.6773 113.688 26.388C113.52 26.0987 113.222 25.884 112.792 25.744C112.372 25.5947 111.775 25.52 111 25.52C110.562 25.52 110.132 25.562 109.712 25.646C109.302 25.7207 108.928 25.814 108.592 25.926C108.266 26.038 108.004 26.15 107.808 26.262L107.78 25.59C107.818 25.45 107.944 25.24 108.158 24.96C108.382 24.6707 108.704 24.372 109.124 24.064C109.544 23.7467 110.072 23.4807 110.706 23.266C111.35 23.042 112.111 22.93 112.988 22.93C113.539 22.93 114.071 22.9813 114.584 23.084C115.098 23.1867 115.555 23.3593 115.956 23.602C116.367 23.8353 116.694 24.1527 116.936 24.554C117.179 24.9553 117.3 25.4547 117.3 26.052V30H113.94ZM104.588 30V20.34H107.948V30H104.588ZM118.208 23.14H126.44V25.24H118.208V23.14ZM120.644 21.04H124.004V30H120.644V21.04Z" fill="#F4F4F4"/>
<path d="M104.035 5.50775C103.965 5.4422 103.881 5.39446 103.788 5.36862C103.696 5.34277 103.599 5.33958 103.506 5.35931C103.39 4.94486 103.194 4.55726 102.929 4.2188C102.663 3.88034 102.333 3.59768 101.958 3.38706C101.583 3.17643 101.17 3.042 100.743 2.99148C100.316 2.94096 99.8828 2.97535 99.4689 3.09267C99.2084 2.52421 98.7901 2.04249 98.2639 1.70476C97.7376 1.36703 97.1254 1.1875 96.5001 1.1875C95.8748 1.1875 95.2626 1.36703 94.7364 1.70476C94.2101 2.04249 93.7919 2.52421 93.5314 3.09267C93.1176 2.9752 92.6847 2.94063 92.2575 2.99095C91.8303 3.04127 91.4173 3.17549 91.0421 3.3859C90.6669 3.59631 90.337 3.87877 90.0713 4.21704C89.8056 4.55532 89.6094 4.94275 89.4939 5.35709C89.3963 5.33707 89.2953 5.3419 89.2001 5.37114C89.105 5.40038 89.0187 5.45309 88.9492 5.52442C88.8797 5.59574 88.8293 5.68339 88.8026 5.77931C88.7758 5.87522 88.7736 5.97632 88.7962 6.0733L91.0643 15.7099C91.1257 15.9704 91.2734 16.2025 91.4832 16.3687C91.6931 16.5348 91.953 16.6251 92.2207 16.625H100.78C101.047 16.6251 101.307 16.5348 101.517 16.3687C101.727 16.2025 101.875 15.9704 101.936 15.7099L104.203 6.0733C104.227 5.97252 104.224 5.86732 104.194 5.76811C104.165 5.66891 104.11 5.57915 104.035 5.50775ZM92.6407 4.15623C92.9801 4.15528 93.3144 4.23841 93.6138 4.39818C93.6946 4.44105 93.7842 4.46466 93.8757 4.46718C93.9671 4.46969 94.0579 4.45104 94.141 4.41267C94.224 4.3743 94.2971 4.31726 94.3545 4.246C94.4118 4.17474 94.452 4.09118 94.4717 4.00185C94.5745 3.54053 94.8315 3.12801 95.2002 2.83237C95.569 2.53673 96.0275 2.37562 96.5001 2.37562C96.9728 2.37562 97.4313 2.53673 97.8 2.83237C98.1688 3.12801 98.4257 3.54053 98.5285 4.00185C98.5483 4.09118 98.5884 4.17474 98.6458 4.246C98.7032 4.31726 98.7762 4.3743 98.8593 4.41267C98.9423 4.45104 99.0331 4.46969 99.1246 4.46718C99.216 4.46466 99.3057 4.44105 99.3865 4.39818C99.6613 4.25239 99.9654 4.17018 100.276 4.15759C100.587 4.14501 100.897 4.20238 101.183 4.32547C101.468 4.44857 101.723 4.63424 101.927 4.8688C102.131 5.10335 102.281 5.3808 102.363 5.68068L99.5015 6.49709L96.9417 5.47287C96.6587 5.35971 96.343 5.35971 96.06 5.47287L93.4995 6.49857L90.6368 5.68068C90.758 5.24231 91.0197 4.85579 91.3816 4.58042C91.7436 4.30505 92.1859 4.15603 92.6407 4.15623ZM92.2207 15.4375L90.1848 6.78654L92.994 7.58884L94.0405 15.4375H92.2207ZM97.7618 15.4375H95.2384L94.1808 7.50498L96.5001 6.57724L98.8195 7.50498L97.7618 15.4375ZM100.78 15.4375H98.9597L100.006 7.58884L102.815 6.78654L100.78 15.4375Z" fill="#9C8BD9"/>
<path d="M82.0311 7.71871H73.5768L81.5858 5.60422C81.6616 5.58424 81.7327 5.54945 81.795 5.50185C81.8573 5.45425 81.9095 5.39479 81.9487 5.32689C81.9879 5.259 82.0133 5.18401 82.0234 5.10626C82.0334 5.02851 82.028 4.94954 82.0074 4.8739L81.4017 2.64734C81.3184 2.34778 81.1204 2.09312 80.8506 1.93851C80.5808 1.7839 80.261 1.74178 79.9604 1.82129L68.6576 4.80488C68.5071 4.84395 68.3659 4.91264 68.2423 5.00695C68.1187 5.10125 68.0152 5.21927 67.9377 5.3541C67.8598 5.48727 67.8095 5.63473 67.7898 5.78773C67.77 5.94073 67.7812 6.09614 67.8227 6.24472L68.3749 8.2798C68.3749 8.29019 68.3749 8.30132 68.3749 8.31246V14.8437C68.3749 15.1587 68.5 15.4607 68.7227 15.6834C68.9454 15.9061 69.2474 16.0312 69.5624 16.0312H81.4374C81.7523 16.0312 82.0543 15.9061 82.277 15.6834C82.4997 15.4607 82.6249 15.1587 82.6249 14.8437V8.31246C82.6249 8.15498 82.5623 8.00396 82.451 7.89261C82.3396 7.78126 82.1886 7.71871 82.0311 7.71871ZM80.2617 2.96871L80.707 4.60671L79.0282 5.05203L76.9412 3.84672L80.2617 2.96871ZM75.3121 4.27496L77.3991 5.48027L74.6575 6.2039L72.5704 5.00007L75.3121 4.27496ZM69.4191 7.5866L68.9738 5.94785L70.9406 5.42832L73.0276 6.63511L69.4191 7.5866ZM81.4374 14.8437H69.5624V8.90621H81.4374V14.8437Z" fill="#9C8BD9"/>
<path d="M122.211 2.96875C120.678 2.96875 119.336 3.62781 118.5 4.74184C117.664 3.62781 116.322 2.96875 114.789 2.96875C113.569 2.97013 112.399 3.45537 111.537 4.31804C110.674 5.1807 110.189 6.35032 110.188 7.57031C110.188 12.7656 117.891 16.9709 118.219 17.1445C118.305 17.191 118.402 17.2154 118.5 17.2154C118.598 17.2154 118.695 17.191 118.781 17.1445C119.109 16.9709 126.812 12.7656 126.812 7.57031C126.811 6.35032 126.326 5.1807 125.463 4.31804C124.601 3.45537 123.431 2.97013 122.211 2.96875ZM118.5 15.9422C117.145 15.1525 111.375 11.5551 111.375 7.57031C111.376 6.66521 111.736 5.79751 112.376 5.15751C113.016 4.5175 113.884 4.15743 114.789 4.15625C116.233 4.15625 117.445 4.92516 117.951 6.16016C117.996 6.26906 118.072 6.3622 118.169 6.42775C118.267 6.4933 118.382 6.5283 118.5 6.5283C118.618 6.5283 118.733 6.4933 118.831 6.42775C118.928 6.3622 119.004 6.26906 119.049 6.16016C119.555 4.92293 120.767 4.15625 122.211 4.15625C123.116 4.15743 123.984 4.5175 124.624 5.15751C125.264 5.79751 125.624 6.66521 125.625 7.57031C125.625 11.5492 119.854 15.1518 118.5 15.9422Z" fill="#9C8BD9"/>
</svg>
