<svg width="290" height="38" viewBox="0 0 290 38" fill="none" xmlns="http://www.w3.org/2000/svg">
<path d="M27.648 26.568H22.848L40.32 8.52H48.32V29H40.32V15.048L42.72 16.04L30.08 29H20.48L7.808 16.072L10.24 15.08V29H2.24V8.52H10.24L27.648 26.568ZM65.9225 29.48C62.5305 29.48 59.7038 29.2027 57.4425 28.648C55.2025 28.0933 53.5172 27.208 52.3865 25.992C51.2772 24.776 50.7225 23.176 50.7225 21.192C50.7225 19.208 51.2772 17.608 52.3865 16.392C53.5172 15.1547 55.2025 14.2587 57.4425 13.704C59.7038 13.128 62.5305 12.84 65.9225 12.84C69.2932 12.84 72.0878 13.128 74.3065 13.704C76.5465 14.2587 78.2212 15.1547 79.3305 16.392C80.4398 17.608 80.9945 19.208 80.9945 21.192C80.9945 23.176 80.4398 24.776 79.3305 25.992C78.2212 27.208 76.5465 28.0933 74.3065 28.648C72.0878 29.2027 69.2932 29.48 65.9225 29.48ZM65.9225 24.84C67.5012 24.84 68.8238 24.712 69.8905 24.456C70.9572 24.1787 71.7678 23.7733 72.3225 23.24C72.8772 22.6853 73.1545 22.0027 73.1545 21.192C73.1545 20.3813 72.8772 19.6987 72.3225 19.144C71.7892 18.5893 70.9892 18.1733 69.9225 17.896C68.8558 17.6187 67.5225 17.48 65.9225 17.48C64.3438 17.48 62.9998 17.6187 61.8905 17.896C60.8025 18.1733 59.9705 18.5893 59.3945 19.144C58.8398 19.6773 58.5625 20.36 58.5625 21.192C58.5625 22.0027 58.8398 22.6853 59.3945 23.24C59.9492 23.7733 60.7705 24.1787 61.8585 24.456C62.9678 24.712 64.3225 24.84 65.9225 24.84ZM96.525 26.12L92.877 26.056L100.941 13.32H109.421L98.253 29H91.021L80.365 13.32H88.813L96.525 26.12ZM119.468 5.096V9.896H111.34V5.096H119.468ZM111.564 13.32H119.244V29H111.564V13.32ZM144.308 23.368H151.86C151.668 24.6053 151.05 25.6827 150.004 26.6C148.98 27.5173 147.476 28.232 145.492 28.744C143.53 29.2347 141.023 29.48 137.972 29.48C134.751 29.48 131.967 29.224 129.62 28.712C127.295 28.2 125.503 27.336 124.244 26.12C122.986 24.904 122.356 23.2613 122.356 21.192C122.356 19.144 122.964 17.512 124.18 16.296C125.418 15.0587 127.199 14.1733 129.524 13.64C131.85 13.1067 134.666 12.84 137.972 12.84C141.215 12.84 143.871 13.128 145.94 13.704C148.01 14.28 149.535 15.2187 150.516 16.52C151.498 17.8 151.967 19.5387 151.924 21.736H130.164C130.271 22.2907 130.57 22.8027 131.06 23.272C131.572 23.7413 132.351 24.1253 133.396 24.424C134.463 24.7013 135.882 24.84 137.652 24.84C139.487 24.84 140.991 24.712 142.164 24.456C143.359 24.2 144.074 23.8373 144.308 23.368ZM137.652 17.48C135.391 17.48 133.663 17.7253 132.468 18.216C131.295 18.7067 130.602 19.1973 130.388 19.688H144.468C144.319 19.1333 143.722 18.632 142.676 18.184C141.631 17.7147 139.956 17.48 137.652 17.48ZM187.385 22.728L184.409 24.424V8.52H192.409V29H184.409L160.313 15.048L163.289 13.32V29H155.289V8.52H163.289L187.385 22.728ZM204.531 5.096V9.896H196.403V5.096H204.531ZM196.627 13.32H204.307V29H196.627V13.32ZM220.667 26.792C217.637 26.792 215.141 26.5467 213.179 26.056C211.216 25.544 209.765 24.7867 208.827 23.784C207.888 22.76 207.419 21.48 207.419 19.944C207.419 18.5147 207.877 17.2773 208.795 16.232C209.712 15.1653 211.141 14.3333 213.083 13.736C215.045 13.1387 217.573 12.84 220.667 12.84C221.285 12.84 221.915 12.84 222.555 12.84C223.195 12.84 223.824 12.84 224.443 12.84H236.667V16.872C235.28 16.936 233.872 16.872 232.443 16.68C231.035 16.4667 229.733 16.1893 228.539 15.848L228.187 15.368C229.147 15.6667 230.053 16.0507 230.907 16.52C231.781 16.9893 232.485 17.5547 233.019 18.216C233.552 18.8773 233.819 19.6667 233.819 20.584C233.819 21.9067 233.36 23.0373 232.443 23.976C231.547 24.8933 230.128 25.5973 228.187 26.088C226.267 26.5573 223.76 26.792 220.667 26.792ZM227.483 35.88V35.016C227.483 34.376 227.195 33.992 226.619 33.864C226.064 33.7573 225.179 33.704 223.963 33.704H215.035C213.52 33.704 212.293 33.5973 211.355 33.384C210.437 33.1707 209.733 32.8827 209.243 32.52C208.773 32.1573 208.453 31.752 208.283 31.304C208.133 30.8773 208.059 30.4507 208.059 30.024C208.059 29.1067 208.4 28.392 209.083 27.88C209.765 27.3467 210.811 26.9733 212.219 26.76C213.627 26.5467 215.419 26.44 217.595 26.44L220.667 26.792C218.875 26.792 217.627 26.888 216.923 27.08C216.219 27.2507 215.867 27.6027 215.867 28.136C215.867 28.4347 216.005 28.6587 216.283 28.808C216.56 28.936 216.933 29 217.403 29H226.843C228.955 29 230.619 29.1493 231.835 29.448C233.051 29.768 233.904 30.2907 234.395 31.016C234.907 31.7627 235.163 32.776 235.163 34.056V35.88H227.483ZM220.667 22.6C222.075 22.6 223.205 22.4933 224.059 22.28C224.933 22.0453 225.563 21.736 225.947 21.352C226.331 20.968 226.523 20.5413 226.523 20.072C226.523 19.5387 226.331 19.08 225.947 18.696C225.563 18.312 224.944 18.0133 224.091 17.8C223.237 17.5867 222.096 17.48 220.667 17.48C219.259 17.48 218.117 17.5867 217.243 17.8C216.368 18.0133 215.728 18.312 215.323 18.696C214.917 19.08 214.715 19.5387 214.715 20.072C214.715 20.5413 214.907 20.968 215.291 21.352C215.696 21.736 216.336 22.0453 217.211 22.28C218.085 22.4933 219.237 22.6 220.667 22.6ZM260.435 29V23.176C260.435 22.216 260.243 21.4053 259.859 20.744C259.475 20.0827 258.792 19.592 257.811 19.272C256.851 18.9307 255.485 18.76 253.715 18.76C252.712 18.76 251.731 18.856 250.771 19.048C249.832 19.2187 248.979 19.432 248.211 19.688C247.464 19.944 246.867 20.2 246.419 20.456L246.355 18.92C246.44 18.6 246.728 18.12 247.219 17.48C247.731 16.8187 248.467 16.136 249.427 15.432C250.387 14.7067 251.592 14.0987 253.043 13.608C254.515 13.096 256.253 12.84 258.259 12.84C259.517 12.84 260.733 12.9573 261.907 13.192C263.08 13.4267 264.125 13.8213 265.043 14.376C265.981 14.9093 266.728 15.6347 267.283 16.552C267.837 17.4693 268.115 18.6107 268.115 19.976V29H260.435ZM239.059 29V6.92H246.739V29H239.059ZM270.189 13.32H289.005V18.12H270.189V13.32ZM275.757 8.52H283.437V29H275.757V8.52Z" fill="#F4F4F4"/>
</svg>
